<?xml version="1.0" standalone="no"?>
<!DOCTYPE svg PUBLIC "-//W3C//DTD SVG 20010904//EN"
 "http://www.w3.org/TR/2001/REC-SVG-20010904/DTD/svg10.dtd">
<svg version="1.0" xmlns="http://www.w3.org/2000/svg"
 width="260.000000pt" height="260.000000pt" viewBox="0 0 260.000000 260.000000"
 preserveAspectRatio="xMidYMid meet">
<metadata>
Created by potrace 1.11, written by Peter Selinger 2001-2013
</metadata>
<g transform="translate(0.000000,260.000000) scale(0.100000,-0.100000)"
fill="#000000" stroke="none">
<path d="M716 2571 c-4 -6 -4 -11 1 -11 4 -1 -3 -7 -16 -14 -14 -8 -31 -12
-38 -9 -7 3 -13 -2 -13 -12 0 -9 -4 -13 -10 -10 -5 3 -12 -6 -16 -21 -5 -19
-9 -22 -15 -12 -7 10 -9 8 -9 -6 0 -11 -3 -16 -6 -13 -8 7 -44 -31 -44 -45 0
-5 -4 -7 -9 -3 -5 3 -13 -4 -16 -16 -4 -11 -9 -18 -12 -15 -7 7 -32 -17 -26
-26 2 -5 -3 -8 -11 -8 -14 0 -16 -35 -16 -299 0 -259 2 -302 16 -315 20 -20
30 -21 14 -1 -11 13 -10 14 6 9 10 -4 25 -12 33 -18 11 -8 13 -8 7 2 -9 15 -5
15 28 2 14 -5 26 -6 26 -2 0 4 126 5 280 2 183 -3 280 -2 280 5 0 6 5 3 10 -5
5 -8 10 -10 10 -3 0 6 8 9 18 6 17 -4 18 4 18 116 -1 75 3 121 9 121 7 0 7 3
0 8 -6 4 -10 56 -10 120 0 68 4 112 10 112 7 0 7 3 0 8 -6 4 -10 55 -10 117 0
62 4 113 10 117 7 5 6 8 -1 8 -6 0 -9 21 -7 54 l2 53 -89 -1 c-54 -1 -90 3
-90 9 0 7 -3 7 -8 0 -8 -12 -92 -14 -92 -2 0 5 -5 5 -11 1 -14 -8 -155 -8
-169 1 -5 3 -10 0 -10 -7 0 -10 -2 -10 -9 1 -6 9 -11 10 -15 2z"/>
<path d="M1501 2575 c-1 -5 -25 -10 -53 -10 l-53 0 -1 -75 c-1 -41 4 -81 10
-89 9 -12 8 -13 -5 -9 -13 5 -15 0 -10 -30 7 -40 6 -148 -2 -200 -4 -28 -2
-31 11 -20 13 11 14 10 4 -9 -7 -12 -10 -38 -7 -58 3 -26 1 -34 -8 -28 -9 5
-9 3 -2 -8 6 -8 10 -34 9 -59 -1 -25 4 -51 10 -59 9 -12 8 -13 -5 -9 -13 5
-15 0 -10 -30 4 -21 6 -61 4 -89 -1 -44 2 -55 18 -63 10 -6 19 -7 19 -3 0 4
112 6 250 3 138 -3 250 -2 250 1 0 3 20 3 45 -1 27 -4 45 -3 45 3 0 5 8 3 17
-4 15 -12 16 -12 10 5 -6 16 -5 17 8 6 9 -7 18 -10 22 -7 3 4 14 2 24 -4 11
-5 19 -6 18 -2 -1 4 -1 15 0 23 1 13 3 13 10 1 6 -9 9 85 9 237 0 184 -4 250
-12 245 -7 -4 -7 -2 1 8 17 21 13 61 -5 54 -11 -4 -13 2 -10 24 3 21 1 28 -9
24 -7 -3 -13 2 -13 12 0 9 -4 14 -9 11 -4 -3 -8 2 -8 12 0 34 -3 43 -12 37 -5
-3 -12 4 -16 15 -3 11 -11 19 -18 17 -6 -1 -11 4 -12 11 0 6 -4 11 -9 10 -5
-2 -13 8 -17 21 -6 15 -14 21 -25 17 -8 -3 -13 -2 -10 3 8 12 -21 34 -33 27
-5 -4 -16 2 -23 13 -12 17 -25 19 -81 18 -39 -1 -67 2 -67 8 0 7 -3 7 -8 0 -8
-11 -92 -14 -92 -3 0 4 -7 5 -15 2 -26 -10 -125 -9 -129 1 -3 7 -5 7 -5 0z"/>
<path d="M716 1582 c-4 -4 -40 -7 -79 -7 -40 -1 -77 -4 -84 -8 -6 -4 -14 -3
-18 2 -4 7 -15 7 -31 1 -17 -7 -23 -7 -19 0 3 6 2 10 -3 10 -6 0 -13 -7 -16
-16 -3 -9 -6 -206 -6 -440 0 -391 1 -423 17 -417 11 4 14 3 9 -5 -4 -7 -4 -12
1 -12 4 0 8 -18 8 -40 0 -22 -3 -40 -7 -40 -5 0 -8 -5 -8 -11 0 -5 4 -8 9 -5
4 3 6 -5 4 -18 -4 -18 1 -25 18 -29 18 -5 21 -9 12 -18 -14 -14 -6 -39 12 -39
16 0 26 -38 11 -44 -7 -3 -7 -5 2 -5 7 -1 10 -5 7 -11 -4 -6 1 -7 11 -3 12 4
15 3 10 -5 -4 -7 -2 -12 4 -12 7 0 9 -8 5 -19 -4 -13 4 -26 30 -45 27 -21 34
-33 31 -51 -3 -14 -1 -24 2 -22 4 1 37 -28 74 -65 51 -51 72 -66 92 -64 19 3
24 -1 21 -16 -3 -13 1 -19 13 -17 32 3 53 -1 48 -9 -2 -4 4 -13 15 -20 10 -7
19 -8 19 -4 0 5 6 9 14 9 8 0 15 -3 14 -6 -2 -21 5 -29 28 -29 15 0 31 -7 36
-16 5 -9 13 -14 19 -11 5 4 9 2 9 -4 0 -11 19 -9 39 3 7 5 16 4 20 -1 3 -6 14
-9 24 -7 9 1 17 -2 17 -7 0 -5 66 -9 150 -9 131 0 150 2 159 18 7 11 10 13 11
3 0 -11 3 -11 16 0 13 10 17 10 24 0 6 -11 9 -11 13 0 5 12 6 12 6 0 1 -11 4
-11 18 0 14 12 16 12 9 -1 -4 -8 3 -3 17 12 19 20 27 24 37 15 10 -9 11 -9 5
2 -6 10 -2 12 13 7 15 -5 20 -2 18 11 -1 12 6 18 22 18 12 0 26 5 30 10 4 6
12 11 17 12 41 6 65 22 65 42 0 6 4 11 8 11 15 0 83 71 77 80 -3 5 4 7 15 5
11 -2 18 0 15 4 -2 5 7 17 20 27 14 10 25 25 25 32 0 7 5 10 10 7 6 -3 10 1
10 10 0 9 4 14 9 11 5 -3 15 2 22 11 10 12 10 14 2 9 -21 -12 -15 15 7 34 12
10 18 25 15 38 -2 12 1 22 6 22 6 0 16 6 22 13 14 14 19 49 6 41 -5 -3 -9 -1
-9 4 0 5 9 12 21 15 12 3 18 10 14 16 -3 6 0 11 7 11 8 0 9 3 3 8 -14 10 -17
32 -4 32 5 0 7 5 4 10 -3 6 1 10 10 10 9 0 13 5 10 10 -3 6 -2 10 4 10 7 0 7
8 1 25 -6 15 -6 26 0 30 6 4 10 11 10 16 0 6 -6 7 -12 3 -9 -5 -8 -2 1 10 11
13 16 14 22 4 5 -7 8 177 8 409 0 386 -1 422 -17 435 -15 12 -16 11 -4 -4 11
-14 11 -16 -7 -11 -11 3 -19 10 -18 16 1 7 -49 11 -153 11 -85 1 -161 5 -169
10 -9 6 -12 5 -8 0 7 -12 -213 -12 -232 0 -9 6 -12 5 -8 0 7 -12 -213 -12
-232 0 -9 6 -12 5 -8 0 6 -11 -212 -13 -229 -2 -6 4 -14 4 -18 0 -11 -10 -289
-11 -302 0 -6 4 -14 4 -18 0z"/>
</g>
</svg>
